<svg xmlns="http://www.w3.org/2000/svg" width="32" height="32" viewBox="0 0 24 24" fill="none"><path d="M22 12c0-5.52-4.48-10-10-10S2 6.48 2 12s4.48 10 10 10" stroke="#FF8A65" stroke-width="1.5" stroke-linecap="round" stroke-linejoin="round"></path><path d="M8 3h1a28.424 28.424 0 0 0 0 18H8M15 3c.97 2.92 1.46 5.96 1.46 9" stroke="#FF8A65" stroke-width="1.5" stroke-linecap="round" stroke-linejoin="round"></path><path d="M3 16v-1c2.92.97 5.96 1.46 9 1.46M3 9a28.424 28.424 0 0 1 18 0M18.2 21.4a3.2 3.2 0 1 0 0-6.4 3.2 3.2 0 0 0 0 6.4ZM22 22l-1-1" stroke="#FF8A65" stroke-width="1.5" stroke-linecap="round" stroke-linejoin="round"></path></svg>